<mxfile host="www.draw.io" modified="2023-05-11T13:50:03.992Z" agent="Mozilla/5.0 (Windows NT 10.0; Win64; x64) AppleWebKit/537.36 (KHTML, like Gecko) Chrome/113.0.0.0 Safari/537.36" etag="tpVHrAEU4G_HsuxVSAUK" version="21.1.4" type="device">
  <diagram name="Page-1" id="7a6c530e-6e37-e111-ec74-82921da8cc10">
    <mxGraphModel dx="1647" dy="915" grid="1" gridSize="10" guides="1" tooltips="1" connect="1" arrows="1" fold="1" page="1" pageScale="1.5" pageWidth="1169" pageHeight="826" background="none" math="0" shadow="0">
      <root>
        <mxCell id="0" style=";html=1;" />
        <mxCell id="1" style=";html=1;" parent="0" />
        <mxCell id="23046e2b9bb16c14-116" value="" style="whiteSpace=wrap;html=1;rounded=1;shadow=0;strokeColor=none;strokeWidth=2;fillColor=#009BFF;fontSize=20;fontColor=#FFFFFF;align=center;arcSize=3;verticalAlign=top;spacingTop=4;" parent="1" vertex="1">
          <mxGeometry x="230" y="470" width="380" height="140" as="geometry" />
        </mxCell>
        <mxCell id="23046e2b9bb16c14-27" value="" style="rounded=1;whiteSpace=wrap;html=1;shadow=0;strokeWidth=2;fillColor=#8BC63E;fontSize=12;fontColor=#000000;align=center;strokeColor=none;arcSize=3;" parent="1" vertex="1">
          <mxGeometry x="230" y="320" width="380" height="150" as="geometry" />
        </mxCell>
        <mxCell id="23046e2b9bb16c14-28" value="" style="rounded=1;whiteSpace=wrap;html=1;shadow=0;strokeWidth=2;fillColor=#F04D22;fontSize=12;fontColor=#FFFFFF;align=center;strokeColor=none;arcSize=6;verticalAlign=top;" parent="1" vertex="1">
          <mxGeometry x="230" y="610" width="380" height="130" as="geometry" />
        </mxCell>
        <mxCell id="23046e2b9bb16c14-85" value="" style="rounded=0;whiteSpace=wrap;html=1;shadow=0;strokeWidth=2;fillColor=#8BC63E;fontSize=12;fontColor=#FFFFFF;align=center;strokeColor=none;arcSize=6;verticalAlign=top;" parent="1" vertex="1">
          <mxGeometry x="420" y="740" width="190" height="102" as="geometry" />
        </mxCell>
        <mxCell id="23046e2b9bb16c14-86" value="" style="rounded=0;whiteSpace=wrap;html=1;shadow=0;strokeWidth=2;fillColor=#0072BC;fontSize=12;fontColor=#FFFFFF;align=center;strokeColor=none;arcSize=3;verticalAlign=top;" parent="1" vertex="1">
          <mxGeometry x="230" y="740" width="190" height="102" as="geometry" />
        </mxCell>
        <mxCell id="23046e2b9bb16c14-94" value="Server&lt;div&gt;Directory&lt;/div&gt;" style="shadow=0;html=1;strokeColor=none;shape=mxgraph.mscae.enterprise.server_directory;fillColor=#FFFFFF;rounded=0;fontSize=10;fontColor=#FFFFFF;align=center;verticalAlign=bottom;labelPosition=center;verticalLabelPosition=top;" parent="1" vertex="1">
          <mxGeometry x="313" y="376" width="36" height="50" as="geometry" />
        </mxCell>
        <mxCell id="23046e2b9bb16c14-109" value="MySQL&lt;div&gt;Database&lt;/div&gt;" style="verticalLabelPosition=top;html=1;verticalAlign=bottom;strokeColor=none;fillColor=#FFFFFF;shape=mxgraph.azure.mysql_database;rounded=0;shadow=0;fontSize=10;fontColor=#FFFFFF;align=center;labelPosition=center;" parent="1" vertex="1">
          <mxGeometry x="383" y="376" width="37.5" height="50" as="geometry" />
        </mxCell>
        <mxCell id="23046e2b9bb16c14-110" value="+" style="text;html=1;strokeColor=none;fillColor=none;align=center;verticalAlign=middle;whiteSpace=wrap;rounded=1;shadow=0;fontSize=30;fontColor=#FFFFFF;fontStyle=1" parent="1" vertex="1">
          <mxGeometry x="343" y="383.5" width="40" height="35" as="geometry" />
        </mxCell>
        <mxCell id="23046e2b9bb16c14-114" value="Subtitle" style="text;html=1;strokeColor=none;fillColor=none;align=center;verticalAlign=middle;whiteSpace=wrap;rounded=0;shadow=0;fontSize=10;fontColor=#009BFF;" parent="1" vertex="1">
          <mxGeometry x="114" y="90" width="1526" height="20" as="geometry" />
        </mxCell>
        <mxCell id="vGhP3yHuF355436-cIpF-4" value="" style="shadow=0;dashed=0;html=1;strokeColor=none;fillColor=#4495D1;labelPosition=center;verticalLabelPosition=bottom;verticalAlign=top;align=center;outlineConnect=0;shape=mxgraph.veeam.2d.virtual_machine;" vertex="1" parent="1">
          <mxGeometry x="270" y="740" width="110" height="100" as="geometry" />
        </mxCell>
        <mxCell id="vGhP3yHuF355436-cIpF-5" value="" style="shadow=0;dashed=0;html=1;strokeColor=none;fillColor=#4495D1;labelPosition=center;verticalLabelPosition=bottom;verticalAlign=top;align=center;outlineConnect=0;shape=mxgraph.veeam.2d.virtual_machine;" vertex="1" parent="1">
          <mxGeometry x="460" y="741" width="110" height="100" as="geometry" />
        </mxCell>
        <mxCell id="vGhP3yHuF355436-cIpF-6" value="" style="shape=image;html=1;verticalAlign=top;verticalLabelPosition=bottom;labelBackgroundColor=#ffffff;imageAspect=0;aspect=fixed;image=https://cdn1.iconfinder.com/data/icons/operating-system-flat-1/30/ubuntu-128.png" vertex="1" parent="1">
          <mxGeometry x="350" y="610" width="128" height="128" as="geometry" />
        </mxCell>
        <mxCell id="vGhP3yHuF355436-cIpF-7" value="" style="shape=image;verticalLabelPosition=bottom;labelBackgroundColor=#ffffff;verticalAlign=top;aspect=fixed;imageAspect=0;image=data:image/svg+xml,PHN2ZyB4bWxuczpjYz0iaHR0cDovL2NyZWF0aXZlY29tbW9ucy5vcmcvbnMjIiB4bWxuczpkYz0iaHR0cDovL3B1cmwub3JnL2RjL2VsZW1lbnRzLzEuMS8iIHhtbG5zOmlua3NjYXBlPSJodHRwOi8vd3d3Lmlua3NjYXBlLm9yZy9uYW1lc3BhY2VzL2lua3NjYXBlIiB4bWxuczpyZGY9Imh0dHA6Ly93d3cudzMub3JnLzE5OTkvMDIvMjItcmRmLXN5bnRheC1ucyMiIHhtbG5zOnNvZGlwb2RpPSJodHRwOi8vc29kaXBvZGkuc291cmNlZm9yZ2UubmV0L0RURC9zb2RpcG9kaS0wLmR0ZCIgeG1sbnM6c3ZnPSJodHRwOi8vd3d3LnczLm9yZy8yMDAwL3N2ZyIgeG1sbnM9Imh0dHA6Ly93d3cudzMub3JnLzIwMDAvc3ZnIiB4bWxuczp4bGluaz0iaHR0cDovL3d3dy53My5vcmcvMTk5OS94bGluayIgdmVyc2lvbj0iMS4xIiBpZD0ic3ZnNjQyMyIgaW5rc2NhcGU6dmVyc2lvbj0iMC45Mi4zICgyNDA1NTQ2LCAyMDE4LTAzLTExKSIgc29kaXBvZGk6ZG9jbmFtZT0ia3ViZXJuZXRlcy5zdmciIHg9IjBweCIgeT0iMHB4IiB2aWV3Qm94PSIwIDAgMzQuNyAzMy43MSIgc3R5bGU9ImVuYWJsZS1iYWNrZ3JvdW5kOm5ldyAwIDAgMzQuNyAzMy43MTsiIHhtbDpzcGFjZT0icHJlc2VydmUiPiYjeGE7PHNvZGlwb2RpOm5hbWVkdmlldyBib3JkZXJjb2xvcj0iIzY2NjY2NiIgYm9yZGVyb3BhY2l0eT0iMSIgZml0LW1hcmdpbi1ib3R0b209IjAiIGZpdC1tYXJnaW4tbGVmdD0iMCIgZml0LW1hcmdpbi1yaWdodD0iMCIgZml0LW1hcmdpbi10b3A9IjAiIGdyaWR0b2xlcmFuY2U9IjEwIiBndWlkZXRvbGVyYW5jZT0iMTAiIGlkPSJuYW1lZHZpZXc2NDI1IiBpbmtzY2FwZTpjdXJyZW50LWxheWVyPSJzdmc2NDIzIiBpbmtzY2FwZTpjeD0iMjMuMTM1NjMyIiBpbmtzY2FwZTpjeT0iMjIuNDcxOTk0IiBpbmtzY2FwZTpwYWdlb3BhY2l0eT0iMCIgaW5rc2NhcGU6cGFnZXNoYWRvdz0iMiIgaW5rc2NhcGU6d2luZG93LWhlaWdodD0iMTAxNyIgaW5rc2NhcGU6d2luZG93LW1heGltaXplZD0iMSIgaW5rc2NhcGU6d2luZG93LXdpZHRoPSIxOTIwIiBpbmtzY2FwZTp3aW5kb3cteD0iLTgiIGlua3NjYXBlOndpbmRvdy15PSItOCIgaW5rc2NhcGU6em9vbT0iMTkuMjg4MzkzIiBvYmplY3R0b2xlcmFuY2U9IjEwIiBwYWdlY29sb3I9IiNmZmZmZmYiIHNob3dncmlkPSJmYWxzZSI+JiN4YTsJPC9zb2RpcG9kaTpuYW1lZHZpZXc+JiN4YTs8ZyBpZD0ic2hhcGUzNTA0LTIiIHRyYW5zZm9ybT0idHJhbnNsYXRlKDIuMjkwNDQ1NywtMi4yODk1MTk5KSI+JiN4YTsJPHRpdGxlIGlkPSJ0aXRsZTY0MDAiPlNoZWV0LjM1MDQ8L3RpdGxlPiYjeGE7CSYjeGE7CQk8cGF0aCBpZD0icGF0aDY0MDIiIGlua3NjYXBlOmNvbm5lY3Rvci1jdXJ2YXR1cmU9IjAiIHN0eWxlPSJmaWxsOiNGRkZGRkY7c3Ryb2tlOiNGRkZGRkY7c3Ryb2tlLXdpZHRoOjQuNTgxO3N0cm9rZS1saW5lY2FwOnJvdW5kO3N0cm9rZS1saW5lam9pbjpyb3VuZDtzdHJva2UtbWl0ZXJsaW1pdDozOyIgZD0iICAgTTE1LjA2LDQuNThsMTIuMDgsNS43N2wyLjk4LDEyLjk2bC04LjM1LDEwLjRIOC4zNkwwLDIzLjMybDIuOTgtMTIuOTdMMTUuMDYsNC41OHoiLz4mI3hhOzwvZz4mI3hhOzxnIGlkPSJzaGFwZTM1MDUtNCIgdHJhbnNmb3JtPSJ0cmFuc2xhdGUoMC44OTgyMTU3MSwtMC44ODg1OTk4NSkiPiYjeGE7CTx0aXRsZSBpZD0idGl0bGU2NDA1Ij5TaGVldC4zNTA1PC90aXRsZT4mI3hhOwk8cGF0aCBpZD0icGF0aDY0MDciIGlua3NjYXBlOmNvbm5lY3Rvci1jdXJ2YXR1cmU9IjAiIHN0eWxlPSJmaWxsOiMzMjZDRTU7IiBkPSJNMTYuMzQsMS43OEMxNi4wNSwxLjgsMTUuNzYsMS44NywxNS41LDJMNC4wNiw3LjQ2ICAgYy0wLjYsMC4yOS0xLjAzLDAuODMtMS4xOCwxLjQ3TDAuMDYsMjEuMjFjLTAuMTQsMC41OC0wLjAzLDEuMTcsMC4yOSwxLjY3YzAuMDQsMC4wNiwwLjA4LDAuMTEsMC4xMywwLjE3TDguNCwzMi45ICAgYzAuNDEsMC41MSwxLjA0LDAuODEsMS43LDAuODFoMTIuN2MwLjY3LDAsMS4zLTAuMywxLjcxLTAuODJsNy45Mi05Ljg0YzAuNDEtMC41MiwwLjU3LTEuMiwwLjQyLTEuODRMMzAuMDMsOC45MyAgIGMtMC4xNS0wLjY0LTAuNTktMS4xOC0xLjE5LTEuNDdMMTcuNCwyQzE3LjA3LDEuODQsMTYuNywxLjc2LDE2LjM0LDEuNzh6Ii8+JiN4YTs8L2c+JiN4YTs8ZyBpZD0ic2hhcGUzNTA2LTYiIHRyYW5zZm9ybT0idHJhbnNsYXRlKDAuODk4MjE1NzEsLTAuODg4NTk5ODUpIj4mI3hhOwk8dGl0bGUgaWQ9InRpdGxlNjQxMCI+U2hlZXQuMzUwNjwvdGl0bGU+JiN4YTsJPHBhdGggaWQ9InBhdGg2NDEyIiBpbmtzY2FwZTpjb25uZWN0b3ItY3VydmF0dXJlPSIwIiBzdHlsZT0iZmlsbDpub25lOyIgZD0iTTE2LjM0LDEuNzhDMTYuMDUsMS44LDE1Ljc2LDEuODcsMTUuNSwyTDQuMDYsNy40NiAgIGMtMC42LDAuMjktMS4wMywwLjgzLTEuMTgsMS40N0wwLjA2LDIxLjIxYy0wLjE0LDAuNTgtMC4wMywxLjE3LDAuMjksMS42N2MwLjA0LDAuMDYsMC4wOCwwLjExLDAuMTMsMC4xN0w4LjQsMzIuOSAgIGMwLjQxLDAuNTEsMS4wNCwwLjgxLDEuNywwLjgxaDEyLjdjMC42NywwLDEuMy0wLjMsMS43MS0wLjgybDcuOTItOS44NGMwLjQxLTAuNTIsMC41Ny0xLjIsMC40Mi0xLjg0TDMwLjAzLDguOTMgICBjLTAuMTUtMC42NC0wLjU5LTEuMTgtMS4xOS0xLjQ3TDE3LjQsMkMxNy4wNywxLjg0LDE2LjcsMS43NiwxNi4zNCwxLjc4Ii8+JiN4YTs8L2c+JiN4YTs8ZyBpZD0ic2hhcGUzNTA3LTkiIHRyYW5zZm9ybT0idHJhbnNsYXRlKDUuMjkwMzg1NywtNS4wNzA3OTk5KSI+JiN4YTsJPHRpdGxlIGlkPSJ0aXRsZTY0MTUiPlNoZWV0LjM1MDc8L3RpdGxlPiYjeGE7CSYjeGE7CQk8cGF0aCBpZD0icGF0aDY0MTciIGlua3NjYXBlOmNvbm5lY3Rvci1jdXJ2YXR1cmU9IjAiIHN0eWxlPSJmaWxsOiNGRkZGRkY7c3Ryb2tlOiNGRkZGRkY7c3Ryb2tlLXdpZHRoOjAuMDExMjtzdHJva2UtbGluZWNhcDpyb3VuZDtzdHJva2UtbGluZWpvaW46cm91bmQ7c3Ryb2tlLW1pdGVybGltaXQ6MzsiIGQ9IiAgIE0xMi4wNiwxMC4xNWMtMC4zOCwwLTAuNjgsMC4zNC0wLjY4LDAuNzZ2MC4wMWMwLDAuMDYsMCwwLjEzLDAsMC4xOGMwLjAxLDAuMjQsMC4wNiwwLjQzLDAuMDksMC42NWMwLjA2LDAuNDgsMC4xLDAuODgsMC4wNywxLjI0ICAgYy0wLjAyLDAuMTQtMC4xMywwLjI3LTAuMjIsMC4zNmwtMC4wMSwwLjI5Yy0wLjQxLDAuMDMtMC44MywwLjA5LTEuMjQsMC4xOWMtMS43OCwwLjQtMy4zMSwxLjMyLTQuNDcsMi41NSAgIGMtMC4wOC0wLjA1LTAuMjEtMC4xNC0wLjI1LTAuMTdjLTAuMTIsMC4wMS0wLjI1LDAuMDUtMC40MS0wLjA0Yy0wLjMxLTAuMjEtMC41OC0wLjQ5LTAuOTItMC44NGMtMC4xNi0wLjE2LTAuMjctMC4zMi0wLjQ1LTAuNDggICBjLTAuMDUtMC4wMy0wLjExLTAuMDgtMC4xNS0wLjEyYy0wLjE1LTAuMTEtMC4zMi0wLjE3LTAuNDgtMC4xOGMtMC4yMSwwLTAuNDIsMC4wOC0wLjU1LDAuMjRjLTAuMjMsMC4zLTAuMTYsMC43NSwwLjE3LDEuMDJoMC4wMSAgIGMwLjA0LDAuMDQsMC4xLDAuMDksMC4xNCwwLjEyYzAuMiwwLjE0LDAuMzgsMC4yMSwwLjU3LDAuMzNjMC40MSwwLjI1LDAuNzUsMC40NiwxLjAyLDAuNzFjMC4xMSwwLjEyLDAuMTIsMC4zMSwwLjE0LDAuNGwwLjIyLDAuMiAgIGMtMS4xOCwxLjc2LTEuNzIsMy45NS0xLjQsNi4xN2wtMC4yOSwwLjA5Yy0wLjA3LDAuMDktMC4xOCwwLjI1LTAuMjksMC4yOWMtMC4zNSwwLjExLTAuNzUsMC4xNS0xLjIzLDAuMiAgIGMtMC4yMiwwLjAyLTAuNDIsMC4wMS0wLjY2LDAuMDZjLTAuMDUsMC4wMS0wLjEyLDAuMDMtMC4xOCwwLjA0YzAsMCwwLDAtMC4wMSwwbDAsMGMtMC40MSwwLjEtMC42NywwLjQ3LTAuNTgsMC44NCAgIGMwLjA4LDAuMzYsMC40NywwLjU5LDAuODgsMC41aDAuMDFsMC4wMS0wLjAxYzAuMDYtMC4wMSwwLjEzLTAuMDIsMC4xOC0wLjA0YzAuMjMtMC4wNiwwLjQtMC4xNSwwLjYxLTAuMjMgICBjMC40Ni0wLjE2LDAuODMtMC4zLDEuMi0wLjM1YzAuMTUtMC4wMiwwLjMxLDAuMDksMC4zOSwwLjE0bDAuMy0wLjA2YzAuNjksMi4xNCwyLjEzLDMuODYsMy45NSw0LjkzbC0wLjEzLDAuMyAgIGMwLjA1LDAuMTIsMC4xLDAuMjgsMC4wNiwwLjM5Yy0wLjEzLDAuMzQtMC4zNiwwLjcxLTAuNjEsMS4xMmMtMC4xMywwLjE4LTAuMjYsMC4zMy0wLjM3LDAuNTRjLTAuMDMsMC4wNi0wLjA2LDAuMTMtMC4wOSwwLjE5ICAgYy0wLjE4LDAuMzctMC4wNSwwLjgxLDAuMjksMC45N2MwLjM0LDAuMTcsMC43Ny0wLjAxLDAuOTUtMC4zOWwwLDBsMCwwYzAuMDMtMC4wNSwwLjA2LTAuMTIsMC4wOC0wLjE3ICAgYzAuMS0wLjIzLDAuMTMtMC40MiwwLjItMC42M2MwLjE4LTAuNDYsMC4yOC0wLjkzLDAuNTMtMS4yM2MwLjA3LTAuMDgsMC4xOC0wLjEyLDAuMjktMC4xNWwwLjE2LTAuMjggICBjMS41OSwwLjYxLDMuMzcsMC43OCw1LjE0LDAuMzdjMC40MS0wLjA5LDAuOC0wLjIxLDEuMTgtMC4zNWMwLjA1LDAuMDgsMC4xMiwwLjIzLDAuMTUsMC4yNmMwLjExLDAuMDQsMC4yNCwwLjA2LDAuMzQsMC4yMSAgIGMwLjE5LDAuMzMsMC4zMiwwLjcsMC40OCwxLjE2YzAuMDYsMC4yMSwwLjEsMC40LDAuMiwwLjYyYzAuMDIsMC4wNiwwLjA1LDAuMTMsMC4wOCwwLjE4YzAuMTgsMC4zOCwwLjYsMC41NSwwLjk1LDAuMzkgICBjMC4zNC0wLjE3LDAuNDYtMC42LDAuMjktMC45N2MtMC4wMy0wLjA2LTAuMDctMC4xNC0wLjA5LTAuMTljLTAuMTItMC4yMS0wLjI0LTAuMzYtMC4zNy0wLjU1Yy0wLjI2LTAuNC0wLjQ3LTAuNzQtMC42MS0xLjA4ICAgYy0wLjA1LTAuMTgsMC4wMS0wLjI5LDAuMDYtMC40MWMtMC4wMy0wLjAzLTAuMDktMC4xOS0wLjEyLTAuMjdjMS45LTEuMTIsMy4yOS0yLjkxLDMuOTUtNC45N2MwLjA5LDAuMDEsMC4yNCwwLjA0LDAuMjksMC4wNSAgIGMwLjEtMC4wNywwLjItMC4xNiwwLjM5LTAuMTRjMC4zNiwwLjA1LDAuNzQsMC4xOSwxLjE5LDAuMzVjMC4yMSwwLjA4LDAuMzgsMC4xOCwwLjYxLDAuMjRjMC4wNSwwLjAxLDAuMTIsMC4wMiwwLjE4LDAuMDQgICBjMCwwLDAuMDEsMCwwLjAyLDBsMCwwYzAuNDEsMC4wOSwwLjgtMC4xMywwLjg5LTAuNWMwLjA4LTAuMzYtMC4xOC0wLjczLTAuNTgtMC44M2MtMC4wNi0wLjAyLTAuMTQtMC4wNC0wLjItMC4wNSAgIGMtMC4yNC0wLjA0LTAuNDMtMC4wMy0wLjY2LTAuMDVjLTAuNDgtMC4wNS0wLjg3LTAuMDktMS4yMy0wLjJjLTAuMTQtMC4wNi0wLjI0LTAuMjMtMC4yOS0wLjNsLTAuMjgtMC4wOCAgIGMwLjE1LTEuMDQsMC4xMS0yLjEyLTAuMTQtMy4yYy0wLjI1LTEuMDktMC42OS0yLjA4LTEuMjgtMi45NmMwLjA3LTAuMDcsMC4yLTAuMTksMC4yNC0wLjIyYzAuMDEtMC4xMywwLTAuMjUsMC4xMy0wLjM5ICAgYzAuMjctMC4yNSwwLjYxLTAuNDYsMS4wMi0wLjcyYzAuMTktMC4xMSwwLjM3LTAuMTgsMC41Ny0wLjMzYzAuMDQtMC4wMywwLjEtMC4wOCwwLjE1LTAuMTJjMC4zMy0wLjI2LDAuNC0wLjcxLDAuMTctMS4wMSAgIGMtMC4yNC0wLjI5LTAuNy0wLjMyLTEuMDMtMC4wNmMtMC4wNCwwLjA0LTAuMTEsMC4wOS0wLjE1LDAuMTJjLTAuMTgsMC4xNi0wLjMsMC4zMi0wLjQ1LDAuNDhjLTAuMzQsMC4zNC0wLjYyLDAuNjMtMC45MiwwLjg0ICAgYy0wLjE0LDAuMDctMC4zMywwLjA1LTAuNDIsMC4wNGwtMC4yNiwwLjE5Yy0xLjQ4LTEuNTYtMy41MS0yLjU1LTUuNjktMi43NWMwLTAuMDktMC4wMS0wLjI1LTAuMDEtMC4zICAgYy0wLjA5LTAuMDktMC4yLTAuMTYtMC4yMy0wLjM1Yy0wLjAzLTAuMzYsMC4wMy0wLjc2LDAuMDgtMS4yNGMwLjA0LTAuMjIsMC4wOS0wLjQxLDAuMS0wLjY1YzAtMC4wNiwwLTAuMTMsMC0wLjE5ICAgQzEyLjc1LDEwLjQ5LDEyLjQ0LDEwLjE1LDEyLjA2LDEwLjE1eiBNMTEuMiwxNS40NkwxMSwxOS4wNWgtMC4wMWwwLDBjLTAuMDIsMC4zMy0wLjI4LDAuNTgtMC42MSwwLjU4ICAgYy0wLjEzLDAtMC4yNS0wLjA0LTAuMzUtMC4xMWgtMC4wMWwtMi45NC0yLjA5bDAsMGMwLjktMC44OSwyLjA2LTEuNTUsMy4zOS0xLjg1QzEwLjcyLDE1LjUyLDEwLjk2LDE1LjQ4LDExLjIsMTUuNDZ6ICAgIE0xMi45MiwxNS40NmMxLjU2LDAuMTksMywwLjg5LDQuMSwxLjk3bC0yLjkyLDIuMDhsLTAuMDEtMC4wMWwwLDBjLTAuMjYsMC4xOS0wLjYzLDAuMTQtMC44My0wLjExYy0wLjA5LTAuMS0wLjEzLTAuMjItMC4xMy0wLjM1ICAgTDEyLjkyLDE1LjQ2eiBNNi4wMSwxOC43N2wyLjY5LDIuNDFMOC42OSwyMS4ybDAsMGMwLjI1LDAuMjEsMC4yOCwwLjU3LDAuMDgsMC44MmMtMC4wOCwwLjExLTAuMTksMC4xOC0wLjMxLDAuMjFsLTAuMDEsMC4wMSAgIGwtMy40NCwxbDAsMEM0LjgzLDIxLjYzLDUuMjEsMjAuMDgsNi4wMSwxOC43N3ogTTE4LjEsMTguNzhjMC40LDAuNjQsMC43LDEuMzcsMC44OCwyLjE1YzAuMTgsMC43NywwLjIyLDEuNTUsMC4xNSwyLjNsLTMuNDctMSAgIHYtMC4wMmwwLDBjLTAuMzEtMC4wOC0wLjUtMC40LTAuNDMtMC43MWMwLjAzLTAuMTMsMC4xLTAuMjQsMC4xOS0wLjMydi0wLjAxTDE4LjEsMTguNzh6IE0xMS41MSwyMS4zNmgxLjFsMC42OSwwLjg2bC0wLjI1LDEuMDcgICBsLTAuOTksMC40OGwtMC45OS0wLjQ4bC0wLjI1LTEuMDdMMTEuNTEsMjEuMzZ6IE0xNS4wNCwyNC4yOWMwLjA1LDAsMC4xLDAuMDEsMC4xNCwwLjAxaDAuMDFsMy41NiwwLjZsMCwwICAgYy0wLjUyLDEuNDYtMS41MiwyLjc0LTIuODUsMy41OGwtMS4zOS0zLjM0aDAuMDFsMCwwYy0wLjEzLTAuMywwLTAuNjQsMC4yOS0wLjc5QzE0Ljg5LDI0LjMyLDE0Ljk2LDI0LjMsMTUuMDQsMjQuMjl6IE05LjA1LDI0LjMxICAgYzAuMjcsMCwwLjUyLDAuMTksMC41OCwwLjQ3YzAuMDMsMC4xMywwLjAyLDAuMjYtMC4wMywwLjM3bDAuMDEsMC4wMWwtMS4zNywzLjMxbDAsMGMtMS4yOC0wLjgyLTIuMy0yLjA1LTIuODUtMy41NmwzLjU0LTAuNnYwLjAxICAgbDAsMEM4Ljk3LDI0LjMxLDkuMDEsMjQuMzEsOS4wNSwyNC4zMXogTTEyLjA0LDI1Ljc2YzAuMDktMC4wMSwwLjE5LDAuMDIsMC4yOCwwLjA2YzAuMTIsMC4wNiwwLjIxLDAuMTUsMC4yNywwLjI2aDAuMDFsMS43NSwzLjE1ICAgbDAsMGMtMC4yMywwLjA3LTAuNDYsMC4xNC0wLjcsMC4xOWMtMS4zMywwLjMtMi42NiwwLjIxLTMuODYtMC4ybDEuNzQtMy4xNGwwLDBsMCwwQzExLjYzLDI1Ljg4LDExLjgzLDI1Ljc3LDEyLjA0LDI1Ljc2eiIvPiYjeGE7PC9nPiYjeGE7PC9zdmc+;" vertex="1" parent="1">
          <mxGeometry x="363.3" y="490.75" width="101.39" height="98.5" as="geometry" />
        </mxCell>
        <mxCell id="vGhP3yHuF355436-cIpF-9" value="" style="dashed=0;outlineConnect=0;html=1;align=center;labelPosition=center;verticalLabelPosition=bottom;verticalAlign=top;shape=mxgraph.webicons.apache;gradientColor=#DFDEDE" vertex="1" parent="1">
          <mxGeometry x="466.99" y="356" width="72" height="80" as="geometry" />
        </mxCell>
        <mxCell id="vGhP3yHuF355436-cIpF-10" value="+" style="text;html=1;strokeColor=none;fillColor=none;align=center;verticalAlign=middle;whiteSpace=wrap;rounded=1;shadow=0;fontSize=30;fontColor=#FFFFFF;fontStyle=1" vertex="1" parent="1">
          <mxGeometry x="426.99" y="383.5" width="40" height="35" as="geometry" />
        </mxCell>
        <mxCell id="vGhP3yHuF355436-cIpF-12" value="" style="whiteSpace=wrap;html=1;rounded=1;shadow=0;strokeColor=#d79b00;strokeWidth=2;fillColor=#ffe6cc;fontSize=20;align=center;arcSize=3;verticalAlign=top;spacingTop=4;" vertex="1" parent="1">
          <mxGeometry x="230" y="190" width="380" height="130" as="geometry" />
        </mxCell>
        <mxCell id="vGhP3yHuF355436-cIpF-11" value="" style="shape=image;verticalLabelPosition=bottom;labelBackgroundColor=#ffffff;verticalAlign=top;aspect=fixed;imageAspect=0;image=data:image/svg+xml,PHN2ZyB4bWxuczpkYz0iaHR0cDovL3B1cmwub3JnL2RjL2VsZW1lbnRzLzEuMS8iIHhtbG5zOmNjPSJodHRwOi8vY3JlYXRpdmVjb21tb25zLm9yZy9ucyMiIHhtbG5zOnJkZj0iaHR0cDovL3d3dy53My5vcmcvMTk5OS8wMi8yMi1yZGYtc3ludGF4LW5zIyIgeG1sbnM6c3ZnPSJodHRwOi8vd3d3LnczLm9yZy8yMDAwL3N2ZyIgeG1sbnM9Imh0dHA6Ly93d3cudzMub3JnLzIwMDAvc3ZnIiB4bWxuczpzb2RpcG9kaT0iaHR0cDovL3NvZGlwb2RpLnNvdXJjZWZvcmdlLm5ldC9EVEQvc29kaXBvZGktMC5kdGQiIHhtbG5zOmlua3NjYXBlPSJodHRwOi8vd3d3Lmlua3NjYXBlLm9yZy9uYW1lc3BhY2VzL2lua3NjYXBlIiB2ZXJzaW9uPSIxLjEiIGlkPSJzdmc4NzU5IiBpbmtzY2FwZTp2ZXJzaW9uPSIwLjkyLjMgKDI0MDU1NDYsIDIwMTgtMDMtMTEpIiBzb2RpcG9kaTpkb2NuYW1lPSJyYW5jaGVyLnN2ZyIgeD0iMHB4IiB5PSIwcHgiIHZpZXdCb3g9IjAgMCA2MS42IDM5LjY2MDE1NiIgeG1sOnNwYWNlPSJwcmVzZXJ2ZSIgd2lkdGg9IjYxLjU5OTk5OCIgaGVpZ2h0PSIzOS42NjAxNTYiPjxtZXRhZGF0YSBpZD0ibWV0YWRhdGExMzExIj48cmRmOlJERj48Y2M6V29yayByZGY6YWJvdXQ9IiI+PGRjOmZvcm1hdD5pbWFnZS9zdmcreG1sPC9kYzpmb3JtYXQ+PGRjOnR5cGUgcmRmOnJlc291cmNlPSJodHRwOi8vcHVybC5vcmcvZGMvZGNtaXR5cGUvU3RpbGxJbWFnZSIvPjxkYzp0aXRsZS8+PC9jYzpXb3JrPjwvcmRmOlJERj48L21ldGFkYXRhPjxkZWZzIGlkPSJkZWZzMTMwOSI+JiN4YTsJJiN4YTsmI3hhOwkmI3hhOyYjeGE7CSYjeGE7JiN4YTsJJiN4YTsmI3hhOwkmI3hhOyYjeGE7CSYjeGE7JiN4YTsJJiN4YTsmI3hhOwkmI3hhOyYjeGE7CSYjeGE7JiN4YTsJJiN4YTsmI3hhOwkmI3hhOyYjeGE7CSYjeGE7JiN4YTsJJiN4YTsmI3hhOwkmI3hhOyYjeGE7CSYjeGE7JiN4YTsJJiN4YTsmI3hhOwkmI3hhOyYjeGE7CSYjeGE7JiN4YTsJJiN4YTsmI3hhOwkmI3hhOyYjeGE7CSYjeGE7PC9kZWZzPiYjeGE7PGZpbHRlciBpZD0iZmlsdGVyXzIiPiYjeGE7CTxmZUdhdXNzaWFuQmx1ciBpZD0iZmVHYXVzc2lhbkJsdXI4NTYxIiBzdGREZXZpYXRpb249IjIiLz4mI3hhOzwvZmlsdGVyPiYjeGE7PHNvZGlwb2RpOm5hbWVkdmlldyBib3JkZXJjb2xvcj0iIzY2NjY2NiIgYm9yZGVyb3BhY2l0eT0iMSIgZml0LW1hcmdpbi1ib3R0b209IjAiIGZpdC1tYXJnaW4tbGVmdD0iMCIgZml0LW1hcmdpbi1yaWdodD0iMCIgZml0LW1hcmdpbi10b3A9IjAiIGdyaWR0b2xlcmFuY2U9IjEwIiBndWlkZXRvbGVyYW5jZT0iMTAiIGlkPSJuYW1lZHZpZXc4NzYxIiBpbmtzY2FwZTpjdXJyZW50LWxheWVyPSJzdmc4NzU5IiBpbmtzY2FwZTpjeD0iNDIuMDcwMDY2IiBpbmtzY2FwZTpjeT0iMjAuNDk0NjcxIiBpbmtzY2FwZTpwYWdlb3BhY2l0eT0iMCIgaW5rc2NhcGU6cGFnZXNoYWRvdz0iMiIgaW5rc2NhcGU6d2luZG93LWhlaWdodD0iMTAxNyIgaW5rc2NhcGU6d2luZG93LW1heGltaXplZD0iMSIgaW5rc2NhcGU6d2luZG93LXdpZHRoPSIxOTIwIiBpbmtzY2FwZTp3aW5kb3cteD0iLTgiIGlua3NjYXBlOndpbmRvdy15PSItOCIgaW5rc2NhcGU6em9vbT0iMTIuODQzNzUiIG9iamVjdHRvbGVyYW5jZT0iMTAiIHBhZ2Vjb2xvcj0iI2ZmZmZmZiIgc2hvd2dyaWQ9ImZhbHNlIj4mI3hhOwk8L3NvZGlwb2RpOm5hbWVkdmlldz4mI3hhOyYjeGE7PHBhdGggaWQ9InBhdGg4NTc2IiBpbmtzY2FwZTpjb25uZWN0b3ItY3VydmF0dXJlPSIwIiBzdHlsZT0iZmlsbDojM2Y1NzY1IiBkPSJtIDIuNjYsMzkuNDMgYyAtMC44OCwwIC0xLjY5LDAgLTIuNTQsMCAwLC0zLjUgMCwtNi45NyAwLC0xMC40MyAwLjA0LDAgMC4wNCwtMC4wNCAwLjA4LC0wLjA0IDEuNjUsMCAzLjMxLDAgNC45NiwwLjA4IDEuNDMsMC4wNyAyLjQzLDAuOTYgMi42MiwyLjE5IDAuMjcsMS41NCAtMC4zOCwyLjc3IC0xLjczLDMuMzkgLTAuMDgsMC4wNCAtMC4xOSwwLjA4IC0wLjE5LDAuMTIgMC4zOCwwLjY5IDAuNzMsMS4zOCAxLjA4LDIuMDQgMC4yMywwLjQyIDAuNSwwLjgxIDEuMDMsMC45MiAwLjQzLDAuMDggMC41OCwwIDAuNywtMC40MiAwLjg4LC0yLjY2IDEuNzcsLTUuMzIgMi42NSwtNy45MyAwLjA4LC0wLjI0IDAuMiwtMC4zNSAwLjQ3LC0wLjM1IDAuNjUsMC4wNCAxLjM0LDAgMiwwIDAuMTEsMCAwLjI3LDAuMTEgMC4zMSwwLjE5IDEuMTUsMy4zNSAyLjI3LDYuNzQgMy40MiwxMC4wOSAwLDAuMDQgMC4wNCwwLjEyIDAuMDQsMC4xOSAtMC44MSwwIC0xLjYxLDAgLTIuMzgsMCAtMC4wOCwwIC0wLjIsLTAuMTEgLTAuMjQsLTAuMjMgLTAuMTksLTAuNSAtMC4zNCwtMS4wNCAtMC41LC0xLjU0IC0wLjAzLC0wLjE5IC0wLjE1LC0wLjI3IC0wLjM0LC0wLjI3IC0xLDAgLTIuMDEsMCAtMy4wNCwwIC0wLjIsMCAtMC4zMSwwLjA4IC0wLjM1LDAuMjcgLTAuMTYsMC41IC0wLjMxLDEgLTAuNDYsMS41IC0wLjA0LDAuMiAtMC4xNiwwLjI3IC0wLjM1LDAuMjcgLTAuODUsMCAtMS42OSwwLjA0IC0yLjUsMC4wOCBDIDYuNDcsMzkuNTkgNS43LDM5LjI0IDUuMiwzOC4zOSA0LjkzLDM3Ljg5IDQuNywzNy4zNSA0LjQzLDM2Ljg1IDQuMjQsMzYuNDcgNC4wNSwzNi4wOCAzLjg1LDM1LjcgYyAtMC4yMywtMC4zOSAtMC42MSwtMC40NiAtMSwtMC4zOSAtMC4wNywwIC0wLjE1LDAuMiAtMC4xNSwwLjMxIDAsMS4xMiAwLDIuMjQgMCwzLjM1IC0wLjA0LDAuMTIgLTAuMDQsMC4yNyAtMC4wNCwwLjQ2IHogbSAwLC01LjkzIEMgMy4zMiwzMy40MyAzLjk3LDMzLjQzIDQuNTUsMzMuMjcgNS4wOSwzMy4xMiA1LjMyLDMyLjU0IDUuMjgsMzEuOTMgNS4yNCwzMS4zNSA0LjkzLDMwLjk2IDQuMzIsMzAuODkgMy44MiwzMC44MSAzLjM1LDMwLjg1IDIuODUsMzAuODUgYyAtMC4wNywwIC0wLjE5LDAuMTUgLTAuMTksMC4yMyAwLDAuNzMgMCwxLjUgMCwyLjQyIHogbSA5Ljk0LC0xLjgxIGMgLTAuMzUsMS4yIC0wLjc0LDIuNTEgLTEuMTIsMy44MiAwLjc3LDAgMS41LDAgMi4xOSwwIC0wLjM4LC0xLjMxIC0wLjczLC0yLjYyIC0xLjA3LC0zLjgyIHoiLz4mI3hhOyYjeGE7PHBhdGggaWQ9InBhdGg4NTg0IiBpbmtzY2FwZTpjb25uZWN0b3ItY3VydmF0dXJlPSIwIiBzdHlsZT0iZmlsbDojM2Y1NzY1IiBkPSJtIDE5Ljc5LDMyLjU0IGMgMCwyLjMxIDAsNC42MiAwLDYuOTMgLTAuNTgsMCAtMS4xOSwwIC0xLjg1LDAgLTAuMDgsMCAtMC4xNSwtMC4xMSAtMC4xOSwtMC4xOSAtMC4wNCwtMC4wOCAwLC0wLjE1IDAsLTAuMjMgMCwtMy4yIDAsLTYuMzkgMCwtOS41OSAwLC0wLjM0IDAuMDgsLTAuNSAwLjQ2LC0wLjQ2IDAuNjYsMC4wNCAxLjM1LDAgMiwwIDAuMiwwIDAuMzEsMC4wOCAwLjQzLDAuMjMgMS4xMSwyLjIzIDIuNDIsNC4zNSAzLjM1LDYuNyAwLDAuMDQgMC4wMywwLjA4IDAuMTUsMC4xMiAwLC0wLjEyIDAsLTAuMjMgMCwtMC4zMSAtMC4wNCwtMi4xNiAtMC4wOCwtNC4yOCAtMC4wOCwtNi40MyAwLC0wLjE2IC0wLjA0LC0wLjMxIDAuMjMsLTAuMzEgMC42MiwwIDEuMjQsMCAxLjg1LDAgMCwzLjUgMCw2Ljk3IDAsMTAuNTEgLTAuNDYsMCAtMC45MiwwIC0xLjM4LDAgLTAuNDMsMCAtMC45MywwLjEyIC0xLjI3LC0wLjA3IC0wLjMxLC0wLjIgLTAuNDMsLTAuNyAtMC42NiwtMS4wNCAtMC43MywtMS4zNSAtMS41LC0yLjcgLTIuMjMsLTQuMDkgLTAuMzEsLTAuNjEgLTAuNTQsLTEuMTkgLTAuODEsLTEuNzcgeiIvPiYjeGE7JiN4YTs8cGF0aCBpZD0icGF0aDg1OTIiIGlua3NjYXBlOmNvbm5lY3Rvci1jdXJ2YXR1cmU9IjAiIHN0eWxlPSJmaWxsOiMzZjU3NjUiIGQ9Im0gMzYuMTIsMzkuNDMgYyAwLC0zLjUxIDAsLTYuOTMgMCwtMTAuNDQgMC44NSwwIDEuNjYsMCAyLjU0LDAgMCwxLjMxIDAsMi41OCAwLDMuODkgMS4xMiwwIDIuMTYsMCAzLjI3LDAgMCwtMS4zMSAwLC0yLjYyIDAsLTMuOTMgMC44OSwwIDEuNywwIDIuNTUsMCAwLDMuNDcgMCw2Ljk3IDAsMTAuNDggLTAuODUsMCAtMS42NiwwIC0yLjU1LDAgMCwtMC4xNiAtMC4wMywtMC4yNyAtMC4wMywtMC40MyAwLC0xLjIzIDAsLTIuNDYgMCwtMy42OSAwLC0wLjI3IC0wLjA4LC0wLjM5IC0wLjM5LC0wLjM1IC0wLjk2LDAgLTEuODksMCAtMi44OSwwIDAsMS41IDAsMi45NyAwLDQuNDMgLTAuODEsMC4wNCAtMS42MSwwLjA0IC0yLjUsMC4wNCB6Ii8+JiN4YTsmI3hhOzxwYXRoIGlkPSJwYXRoODYwMCIgaW5rc2NhcGU6Y29ubmVjdG9yLWN1cnZhdHVyZT0iMCIgc3R5bGU9ImZpbGw6IzNmNTc2NSIgZD0ibSA1My4yMSwzOS40NCBjIDAsLTMuNTEgMCwtNi45NyAwLC0xMC40NCAwLjEyLDAgMC4xOSwtMC4wNCAwLjI3LC0wLjA0IDEuMzksMCAyLjczLDAgNC4xMiwwIDAuNDIsMCAwLjg1LDAuMDggMS4yMywwLjE2IDEuMjMsMC4zMSAxLjkzLDEuMTEgMi4wOCwyLjQyIDAuMTUsMS4xMiAtMC40MiwyLjI4IC0xLjQyLDIuODUgLTAuMiwwLjEyIC0wLjM5LDAuMiAtMC41NCwwLjI3IDAuMzgsMC43IDAuNzMsMS4zOSAxLjExLDIuMDggMC4zMSwwLjYyIDAuNzQsMSAxLjU0LDAuODUgLTAuMDcsMC41OCAtMC4xMSwxLjEyIC0wLjE5LDEuNjUgMCwwLjA4IC0wLjE1LDAuMTYgLTAuMjMsMC4xNiAtMS4zNSwwLjI3IC0yLjM1LDAuMDQgLTMuMDQsLTEuMjcgLTAuMjcsLTAuNSAtMC41LC0xLjA4IC0wLjczLC0xLjYyIC0wLjEyLC0wLjI3IC0wLjI3LC0wLjU0IC0wLjQzLC0wLjgxIC0wLjE5LC0wLjM0IC0wLjQ2LC0wLjUgLTAuODgsLTAuNSAtMC4yNywwIC0wLjM1LDAuMDggLTAuMzUsMC4zNSAwLDEuMTEgMCwyLjI3IDAsMy4zOSAwLDAuMTEgMCwwLjI3IDAsMC40MiAtMC44NSwwLjA4IC0xLjY5LDAuMDggLTIuNTQsMC4wOCB6IG0gMi41OCwtNS45MyBjIDAuNjUsLTAuMDggMS4yMywtMC4wOCAxLjgxLC0wLjIgMC41OCwtMC4xNSAwLjg1LC0wLjczIDAuODEsLTEuMzggLTAuMDQsLTAuNjIgLTAuMzksLTEgLTAuOTYsLTEuMDggLTAuNDcsLTAuMDggLTAuOTcsLTAuMDQgLTEuNDMsLTAuMDQgLTAuMDgsMCAtMC4xOSwwLjE2IC0wLjE5LDAuMjMgLTAuMDgsMC43NyAtMC4wNCwxLjU0IC0wLjA0LDIuNDcgeiIvPiYjeGE7JiN4YTs8cGF0aCBpZD0icGF0aDg2MDgiIGlua3NjYXBlOmNvbm5lY3Rvci1jdXJ2YXR1cmU9IjAiIHN0eWxlPSJmaWxsOiMzZjU3NjUiIGQ9Im0gNTIuNTYsMjguOTYgYyAwLDAuNTggMCwxLjEyIDAsMS43IDAsMC4wNyAtMC4xOSwwLjE1IC0wLjMxLDAuMTUgLTEuMTksMCAtMi4zOCwwIC0zLjU4LDAgLTAuMTUsMCAtMC4yNywwIC0wLjQ2LDAgMCwwLjc3IDAsMS41IDAsMi4yNyAwLjE1LDAgMC4yNywwLjA0IDAuNDIsMC4wNCAwLjc3LDAgMS41NCwwIDIuMzEsMCAwLjkzLDAgMC45MywwIDAuOTMsMC45MiAwLDAuMzEgMCwwLjYyIDAsMC45MyAtMS4yMywwIC0yLjQzLDAgLTMuNjYsMCAwLDAuODUgMCwxLjY1IDAsMi41IDEuNSwwIDIuOTYsMCA0LjQ3LDAgMCwwLjY2IDAsMS4yNyAwLDEuODkgLTIuMzUsMCAtNC43LDAgLTcuMDUsMCAwLC0zLjQ3IDAsLTYuOTcgMCwtMTAuNDQgMi4zMSwwLjA0IDQuNjIsMC4wNCA2LjkzLDAuMDQgeiIvPiYjeGE7JiN4YTs8cGF0aCBpZD0icGF0aDg2MTYiIGlua3NjYXBlOmNvbm5lY3Rvci1jdXJ2YXR1cmU9IjAiIHN0eWxlPSJmaWxsOiMzZjU3NjUiIGQ9Im0gMzMuMzksMzUuNzMgYyAwLjY5LDAuMDggMS4zMSwwLjE2IDEuOTYsMC4yIDAuMzEsMC4wNCAwLjI3LDAuMjMgMC4yNywwLjQyIC0wLjA4LDEuNDMgLTAuNzcsMi40MyAtMi4xMiwyLjkzIC0xLjMxLDAuNSAtMi42MiwwLjUgLTMuOTYsMC4wNCAtMS4zMSwtMC40NyAtMi4wOCwtMS40MyAtMi40NywtMi43NCAtMC40NiwtMS42MiAtMC40NiwtMy4yMyAtMC4wNCwtNC44NSAwLjUsLTEuNzcgMS44MSwtMi44MSAzLjY2LC0zIDAuOTMsLTAuMDggMS44MSwtMC4wNCAyLjcsMC4yMyAxLjU4LDAuNSAyLjM4LDEuOTYgMi4wNCwzLjY2IC0wLjczLDAuMDcgLTEuNSwwLjE1IC0yLjMxLDAuMjMgMCwtMC4yMyAwLC0wLjQ3IDAsLTAuNyAwLC0wLjg0IC0wLjMxLC0xLjM0IC0xLC0xLjU3IC0wLjgxLC0wLjI3IC0xLjYyLDAgLTIuMDgsMC42MSAtMC4zOSwwLjU0IC0wLjU0LDEuMTkgLTAuNTgsMS44NSAtMC4xMiwxLjA0IC0wLjEyLDIuMDggMC4xOSwzLjA4IDAuMzUsMS4yMyAxLjIsMS43NyAyLjM1LDEuNTggMC44OSwtMC4xNiAxLjM5LC0wLjc3IDEuMzksLTEuNyAwLC0wLjAzIDAsLTAuMTEgMCwtMC4yNyB6Ii8+JiN4YTsmI3hhOzxyZWN0IGlkPSJyZWN0ODYyNSIgeD0iMTcuNjM5OTk5IiB5PSIyOC45NTk5OTkiIHN0eWxlPSJmaWxsOiMzZjU3NjUiIHdpZHRoPSIyLjE2MDAwMDEiIGhlaWdodD0iMTAuNTUiLz4mI3hhOyYjeGE7PHJlY3QgaWQ9InJlY3Q4NjMzIiB4PSIwIiB5PSIyOC45NTk5OTkiIHN0eWxlPSJmaWxsOiMzZjU3NjUiIHdpZHRoPSIyLjczIiBoZWlnaHQ9IjEwLjU1Ii8+JiN4YTsmI3hhOzxwYXRoIGlkPSJwYXRoODY0MSIgaW5rc2NhcGU6Y29ubmVjdG9yLWN1cnZhdHVyZT0iMCIgc3R5bGU9ImZpbGw6IzNmNTc2NSIgZD0iTSAyNi4wNywzOS40NyBIIDIzLjM4IEwgMTcuNjQsMjguOTYgaCAyLjkzIHoiLz4mI3hhOyYjeGE7PHBhdGggaWQ9InBhdGg4NjQ5IiBpbmtzY2FwZTpjb25uZWN0b3ItY3VydmF0dXJlPSIwIiBzdHlsZT0iZmlsbDojM2Y1NzY1IiBkPSJtIDE3LjY0LDM5LjQ3IGggLTIuNyBMIDExLjQsMjguOTYgaCAyLjY2IHoiLz4mI3hhOyYjeGE7PHBhdGggaWQ9InBhdGg4NjU3IiBpbmtzY2FwZTpjb25uZWN0b3ItY3VydmF0dXJlPSIwIiBzdHlsZT0iZmlsbDojM2Y1NzY1IiBkPSJtIDcuMzksMzkuNDcgaCAyLjczIGwgMy41NSwtMTAuNTEgaCAtMi42NiB6Ii8+JiN4YTsmI3hhOzxyZWN0IGlkPSJyZWN0ODY2NSIgeD0iMjMuOTEiIHk9IjI4Ljk1OTk5OSIgc3R5bGU9ImZpbGw6IzNmNTc2NSIgd2lkdGg9IjIuMTYwMDAwMSIgaGVpZ2h0PSIxMC41NSIvPiYjeGE7JiN4YTs8cmVjdCBpZD0icmVjdDg2NzMiIHg9IjM2LjA0MDAwMSIgeT0iMjguOTU5OTk5IiBzdHlsZT0iZmlsbDojM2Y1NzY1IiB3aWR0aD0iMi43IiBoZWlnaHQ9IjEwLjU1Ii8+JiN4YTsmI3hhOzxyZWN0IGlkPSJyZWN0ODY4MSIgeD0iNDEuODIiIHk9IjI4Ljk1OTk5OSIgc3R5bGU9ImZpbGw6IzNmNTc2NSIgd2lkdGg9IjIuNyIgaGVpZ2h0PSIxMC41NSIvPiYjeGE7JiN4YTs8cmVjdCBpZD0icmVjdDg2ODkiIHg9IjQ1LjU0OTk5OSIgeT0iMjguOTU5OTk5IiBzdHlsZT0iZmlsbDojM2Y1NzY1IiB3aWR0aD0iMi43IiBoZWlnaHQ9IjEwLjU1Ii8+JiN4YTsmI3hhOzxyZWN0IGlkPSJyZWN0ODY5NyIgeD0iNTMuMTM5OTk5IiB5PSIyOC45NTk5OTkiIHN0eWxlPSJmaWxsOiMzZjU3NjUiIHdpZHRoPSIyLjciIGhlaWdodD0iMTAuNTUiLz4mI3hhOyYjeGE7PHJlY3QgaWQ9InJlY3Q4NzA1IiB4PSI0Ny42Njk5OTgiIHk9IjI4Ljk1OTk5OSIgc3R5bGU9ImZpbGw6IzNmNTc2NSIgd2lkdGg9IjQuOTI5OTk5OCIgaGVpZ2h0PSIxLjkyOTk5OTkiLz4mI3hhOyYjeGE7JiN4YTsmI3hhOyYjeGE7JiN4YTsmI3hhOyYjeGE7JiN4YTsmI3hhOzxwYXRoIGlkPSJwYXRoODc0NSIgaW5rc2NhcGU6Y29ubmVjdG9yLWN1cnZhdHVyZT0iMCIgc3R5bGU9ImZpbGw6IzNmNTc2NSIgZD0iTSAxMy45OCw4LjA5IEMgMTMuMDksOC43OCAxMi4yOCw5LjQgMTEuNTUsMTAuMDEgMTEuMjEsMTAuMjggMTAuOTcsMTAuMjggMTAuNjcsOS45IDEwLjA1LDkuMTcgMTAuMDUsOS4xNyAxMC41OSw4LjM2IDExLjc0LDYuNjMgMTIuOSw0Ljg1IDE0LjA1LDMuMDggYyAwLjMxLC0wLjUgMC43NCwtMC43MyAxLjMxLC0wLjczIDYuNzgsMCAxMy41NiwwIDIwLjMzLDAgMS4wNCwwIDEuNDMsMC41IDEuMjcsMS41NCAtMC4xMSwwLjcgLTAuMjMsMS4zOSAtMC4zNCwyLjA4IC0wLjE2LDAuOTMgMC4zNCwxLjU0IDEuMzEsMS41NCAxLjMxLDAgMi41OCwwIDMuODksMCAwLjczLDAgMS4wNywtMC4yNyAxLjIzLC0wLjg4IC0xLjIsMCAtMi4zOSwwIC0zLjYyLDAgLTEuMjcsMCAtMS44NSwtMC43NCAtMS42MiwtMS45NyBDIDM4LDMuNjIgMzguMTYsMi41OCAzOC4zNSwxLjU0IDM4LjQ3LDEuMDQgMzguNywwLjU4IDM4Ljk3LDAgYyAwLjY5LDAuODEgMC41NCwxLjU4IDAuNjUsMi4zOSAwLjIzLDAgMC40MiwwIDAuNjIsMCAzLDAgNi4wNCwwIDkuMDUsMCAxLjUsMCAyLjE1LDAuNTQgMi4xOSwyLjA0IDAuMDgsMiAwLDQuMDQgMCw2LjA1IDAsMS4wNCAwLDIuMTEgMCwzLjE1IC0wLjA0LDAuOTcgLTAuNjksMS42MiAtMS42NSwxLjYyIC0xLjY2LDAgLTMuMzIsMCAtNC45MywwIC0xLDAgLTEuNywtMC43MyAtMS43LC0xLjczIDAsLTEuMiAwLC0yLjM5IDAsLTMuNzggLTAuMjMsMC4yNCAtMC40MiwwLjMxIC0wLjUsMC40NyAtMC4xNSwwLjM4IC0wLjM0LDAuODEgLTAuMzgsMS4yMyAtMC4wNCwwLjkyIC0wLjA0LDEuODUgMCwyLjc3IDAuMDQsMS4yNyAwLjgxLDIuMDQgMi4wOCwyLjA0IDAuOCwwIDEuNjEsMCAyLjQyLDAgMC4zNSwwIDAuNSwwLjEyIDAuNSwwLjQ2IDAsMS40MyAwLDIuODEgMCw0LjI0IDAsMC42OSAtMC40MiwxLjA4IC0xLjExLDEuMDggLTEuODksMCAtMy44MiwwIC01LjcsMCAtMC43NywwIC0xLjE2LC0wLjQzIC0xLjE2LC0xLjE2IDAsLTEuMzUgMCwtMi42NSAwLC00IDAsLTEuMDggLTAuNDYsLTEuNSAtMS41NCwtMS41NCAtNC43LDAgLTkuMzksMCAtMTQuMTMsMCAtMS4xMiwwIC0xLjU0LDAuNDIgLTEuNTQsMS41OCAwLDEuMzEgMCwyLjU4IDAsMy44OSAwLDAuODQgLTAuMzgsMS4yMyAtMS4yNywxLjIzIC0xLjc3LDAgLTMuNTgsMCAtNS4zNSwwIC0xLDAgLTEuMzksLTAuMzUgLTEuMzksLTEuMzkgMCwtMy44OSAwLC03Ljc4IDAsLTExLjYzIC0wLjExLC0wLjIzIC0wLjExLC0wLjUgLTAuMTUsLTAuOTIgeiIvPiYjeGE7JiN4YTs8cGF0aCBpZD0icGF0aDg3NTMiIGlua3NjYXBlOmNvbm5lY3Rvci1jdXJ2YXR1cmU9IjAiIHN0eWxlPSJmaWxsOiMzZjU3NjUiIGQ9Im0gNTUuNzIsMC4xNiBjIDAuMTksMC4zOCAwLjQyLDAuNzMgMC41LDEuMTIgMC4yMywxLjIzIDAuNDYsMi40NiAwLjYxLDMuNjkgMC4xMiwxLjA4IC0wLjQ2LDEuNjYgLTEuNTQsMS42NiAtMC45NiwwIC0xLjk2LDAgLTMsMCAwLC0wLjYyIDAsLTEuMiAwLC0xLjc3IDAsLTAuMTIgMC4xOSwtMC4yNyAwLjM1LC0wLjI3IDAuMjMsLTAuMDQgMC40NiwwIDAuNjksLTAuMDQgMS4wOCwtMC4xNiAxLjY5LC0wLjkzIDEuNzMsLTIuMDggMC4wNCwtMC41OCAwLjA4LC0xLjE2IDAuMTIsLTEuNzMgMC4wNCwtMC4yIDAuMTUsLTAuMzkgMC4yMywtMC41OCAwLjE1LDAgMC4yMywwIDAuMzEsMCB6Ii8+JiN4YTs8L3N2Zz4=;" vertex="1" parent="1">
          <mxGeometry x="336.5" y="210" width="155" height="100" as="geometry" />
        </mxCell>
      </root>
    </mxGraphModel>
  </diagram>
</mxfile>
